<?xml version="1.0" standalone="no"?>
<!DOCTYPE svg PUBLIC "-//W3C//DTD SVG 20010904//EN"
 "http://www.w3.org/TR/2001/REC-SVG-20010904/DTD/svg10.dtd">
<svg version="1.0" xmlns="http://www.w3.org/2000/svg"
 width="1024.000000pt" height="1024.000000pt" viewBox="0 0 1024.000000 1024.000000"
 preserveAspectRatio="xMidYMid meet">

<g transform="translate(0.000000,1024.000000) scale(0.100000,-0.100000)"
fill="#000000" stroke="none">
<path d="M0 5120 l0 -5120 1570 0 c1098 0 1570 3 1570 11 0 5 -4 8 -9 5 -10
-7 -23 19 -14 28 4 3 18 6 32 6 21 0 23 -2 11 -11 -13 -9 -12 -10 3 -5 11 3
17 0 17 -9 0 -18 26 -20 36 -3 5 7 2 9 -9 5 -9 -3 -18 1 -21 9 -9 24 -7 27 9
14 13 -11 14 -10 9 6 -3 10 6 2 21 -18 l28 -38 3094 0 3093 0 0 80 0 80 320 0
320 0 0 -80 0 -80 80 0 80 0 0 5120 0 5120 -1819 0 c-1794 0 -1820 0 -1816
-19 2 -11 9 -29 15 -41 6 -12 9 -26 7 -33 -2 -7 -17 12 -33 40 l-29 53 -3282
0 -3283 0 0 -5120z m6655 5001 c-3 -5 0 -13 6 -16 5 -4 8 -13 5 -20 -3 -8 -1
-16 5 -19 5 -2 4 -3 -3 -2 -7 1 -18 17 -25 34 -11 28 -11 32 3 32 8 0 13 -4 9
-9z m52 -106 c0 -8 -4 -15 -9 -15 -10 0 -11 14 -1 23 9 10 10 9 10 -8z m11
-50 c-3 -3 -9 2 -12 12 -6 14 -5 15 5 6 7 -7 10 -15 7 -18z m569 -1001 c-3 -4
1 -20 9 -36 23 -45 11 -43 -15 2 -20 36 -21 40 -5 40 10 0 15 -3 11 -6z
m-1860 -154 c66 -33 129 -70 140 -83 23 -25 67 -134 77 -189 6 -32 11 -38 32
-38 13 0 41 -7 62 -15 20 -9 53 -20 72 -25 69 -17 165 -63 198 -93 70 -67 144
-271 167 -462 3 -27 10 -72 15 -100 10 -53 55 -331 90 -555 12 -74 35 -216 51
-315 44 -262 79 -514 72 -531 -3 -8 0 -20 6 -27 5 -7 20 -69 31 -138 11 -68
25 -146 30 -174 23 -121 63 -370 76 -480 8 -66 23 -174 34 -240 11 -66 22
-140 25 -165 12 -108 36 -264 41 -272 11 -18 4 -138 -9 -171 -20 -48 -98 -124
-149 -147 -54 -24 -347 -60 -349 -43 -7 42 -4 59 10 70 14 11 12 12 -11 13
-18 0 -28 5 -28 15 0 14 -4 14 -31 -1 -26 -13 -30 -20 -26 -42 3 -15 -1 -35
-8 -46 -8 -10 -12 -23 -9 -27 3 -5 -2 -9 -10 -9 -9 0 -13 6 -10 14 3 8 1 17
-5 20 -6 4 -7 14 -4 23 4 9 2 14 -3 10 -12 -7 -9 67 4 138 6 28 15 76 21 109
6 32 14 63 19 70 6 6 15 43 22 82 14 81 19 88 79 129 46 31 179 183 206 235 8
16 15 47 15 70 0 22 5 49 12 59 11 19 4 56 -9 48 -5 -3 -9 36 -11 87 -3 81
-13 164 -43 336 -6 30 -12 70 -15 88 -3 18 -15 68 -26 110 -11 42 -40 174 -64
292 -24 118 -48 224 -53 235 -5 11 -15 36 -21 55 -21 57 -43 104 -57 118 -7 8
-18 23 -25 35 -12 24 -63 90 -89 118 -39 40 -155 121 -222 154 -39 20 -76 40
-81 45 -11 11 33 52 104 98 62 39 65 43 124 132 67 102 81 153 80 300 -2 166
-45 347 -123 510 -18 38 -90 137 -131 180 -64 67 -104 120 -133 178 -39 80
-81 110 -135 94 -21 -6 -56 -13 -79 -17 -43 -7 -60 -25 -24 -25 11 0 23 -4 26
-10 3 -5 11 -10 16 -10 6 0 8 3 6 8 -3 4 22 7 56 7 l60 0 43 -85 c23 -47 47
-107 54 -135 6 -27 15 -52 20 -55 4 -3 20 -32 35 -65 15 -33 47 -100 70 -150
24 -49 52 -112 61 -140 9 -27 26 -63 38 -80 19 -27 21 -43 20 -155 0 -114 -3
-132 -31 -208 -17 -46 -44 -99 -60 -119 -15 -19 -37 -48 -48 -63 -11 -15 -42
-54 -68 -87 -51 -64 -54 -65 -132 -47 -27 6 -28 5 -15 -9 8 -8 44 -27 80 -43
150 -66 190 -94 292 -209 54 -60 109 -130 122 -155 13 -25 38 -59 56 -77 28
-29 30 -34 19 -55 -16 -29 -13 -76 6 -105 19 -28 21 -117 3 -108 -7 4 -4 -1 7
-9 11 -9 25 -14 32 -12 6 3 14 -3 17 -12 7 -20 0 -144 -9 -172 -7 -22 5 -26
23 -8 6 6 14 10 16 7 4 -4 56 -385 56 -410 0 -12 -37 -11 -62 2 -11 6 -22 9
-24 7 -7 -7 72 -78 86 -78 18 0 43 -240 27 -257 -12 -11 -8 -43 9 -79 10 -21
14 -44 10 -62 -4 -15 -8 -34 -10 -42 -7 -41 -106 -159 -133 -160 -6 0 -18 -9
-26 -20 -20 -29 -97 -84 -137 -99 -19 -7 -49 -20 -67 -27 -17 -8 -34 -14 -38
-14 -5 0 -28 -17 -53 -38 -25 -20 -55 -43 -66 -50 -19 -11 -18 -12 14 -7 19 4
47 15 62 26 15 10 32 19 38 19 5 0 19 9 30 20 25 25 48 27 29 3 -10 -11 -10
-14 -1 -9 16 10 17 -117 0 -147 -7 -12 -13 -29 -14 -37 0 -8 -4 -22 -7 -30 -4
-8 -13 -40 -21 -70 -24 -93 -91 -220 -156 -298 -65 -77 -189 -182 -278 -235
-29 -18 -61 -37 -70 -42 -44 -27 -80 -52 -110 -77 -18 -15 -41 -28 -51 -28
-10 0 -35 -7 -54 -15 -20 -8 -51 -15 -69 -15 -30 1 -31 2 -15 14 18 14 14 46
-7 46 -20 0 -66 24 -66 35 -1 6 -11 -19 -24 -55 -20 -56 -28 -68 -67 -90 -69
-41 -107 -51 -213 -56 l-99 -5 6 44 c6 39 -5 142 -19 188 -2 9 -14 19 -24 22
-11 3 -24 16 -29 29 -10 23 -10 23 -10 -5 -1 -15 6 -42 15 -60 20 -37 21 -164
3 -200 -15 -29 -80 -97 -94 -97 -11 -1 -70 -52 -98 -86 -18 -21 -17 -23 28
-65 62 -59 128 -154 331 -472 l71 -112 39 3 c22 2 47 -3 58 -11 18 -13 17 -15
-8 -42 -14 -15 -26 -32 -26 -36 0 -5 -7 -9 -15 -9 -38 0 0 -135 95 -340 22
-47 40 -92 40 -101 0 -9 11 -33 25 -53 66 -98 44 -137 -226 -391 -47 -44 -146
-144 -220 -223 -118 -126 -143 -147 -206 -178 -40 -19 -90 -38 -110 -41 -21
-3 -50 -12 -65 -19 -38 -20 -52 -18 -87 12 -27 23 -31 32 -31 77 1 57 2 60
158 332 116 204 158 303 146 352 -13 55 -54 121 -94 155 l-42 34 44 21 c24 12
59 27 78 34 19 7 64 28 99 47 108 59 115 62 137 62 22 0 62 39 84 83 7 15 43
50 80 78 55 42 66 55 62 74 -4 21 -7 22 -35 13 -18 -6 -39 -16 -47 -23 -8 -7
-40 -24 -71 -39 -31 -14 -74 -39 -95 -54 -21 -15 -60 -38 -86 -50 -55 -25 -60
-37 -21 -47 24 -6 26 -8 10 -16 -9 -6 -17 -19 -17 -29 0 -28 -18 -34 -22 -8
-4 21 -6 19 -23 -14 -19 -40 -35 -49 -35 -22 0 8 5 12 10 9 6 -3 10 1 10 10 0
14 -2 14 -25 -1 -14 -9 -25 -12 -25 -8 0 5 -4 3 -9 -5 -5 -8 -14 -10 -22 -6
-9 6 -5 14 17 32 16 12 24 23 18 23 -21 0 -139 -63 -127 -67 6 -2 24 4 38 13
22 14 28 15 35 4 9 -15 -14 -39 -37 -40 -7 0 -28 -8 -48 -17 -46 -22 -85 -5
-85 39 0 16 -8 43 -17 61 -11 21 -16 52 -15 92 0 33 -4 74 -10 90 -17 44 -86
154 -124 199 -19 22 -34 47 -34 56 0 9 -9 25 -20 35 -28 25 -26 53 5 61 31 8
23 24 -13 24 -15 0 -62 5 -104 12 -59 9 -79 17 -84 30 -7 22 -24 24 -24 3 0
-8 -6 -15 -14 -15 -24 0 -30 -21 -8 -27 12 -3 26 -19 31 -35 16 -45 13 -58 -5
-25 -9 16 -18 26 -21 23 -3 -3 13 -42 36 -86 63 -123 94 -202 92 -232 0 -15 3
-29 7 -32 5 -3 8 10 7 29 -1 35 11 47 21 21 3 -8 11 -13 19 -10 25 10 34 -85
13 -133 -16 -35 -38 -54 -108 -95 -30 -17 -70 -48 -89 -67 -19 -20 -31 -30
-26 -23 6 11 3 11 -12 1 -11 -6 -49 -52 -84 -101 -204 -283 -244 -332 -300
-368 -80 -52 -129 -66 -165 -49 -25 12 -29 20 -32 64 -4 67 9 116 68 239 27
58 50 108 50 111 0 4 14 38 30 75 28 63 29 73 20 116 -6 26 -24 64 -40 84 -38
47 -80 137 -80 170 0 17 -9 30 -30 42 -38 22 -38 37 -1 44 20 4 28 11 24 20
-3 9 2 14 15 14 12 0 24 5 27 11 4 5 31 21 62 34 30 14 75 38 99 55 25 16 48
30 52 30 4 0 34 11 67 24 33 14 103 41 155 62 52 20 102 43 110 52 13 13 9 14
-42 8 -31 -3 -76 -14 -100 -25 -23 -10 -53 -17 -65 -15 -13 2 -23 0 -23 -5 0
-4 -18 -16 -40 -26 -22 -10 -37 -22 -34 -26 3 -5 -1 -6 -9 -3 -8 3 -21 -3 -28
-13 -8 -11 -36 -29 -64 -42 -27 -13 -59 -31 -70 -41 -11 -10 -31 -21 -45 -23
-26 -4 -84 -30 -111 -49 -9 -6 -24 -8 -33 -5 -14 6 -13 11 10 37 15 16 31 30
35 30 5 0 33 11 63 25 109 50 115 52 152 54 14 1 26 12 34 31 19 47 76 91 106
84 19 -5 23 -3 18 10 -3 9 -13 16 -21 16 -13 0 -13 3 -3 15 8 9 9 15 2 15 -6
0 -14 -5 -17 -10 -3 -5 -14 -10 -24 -10 -10 0 -39 -18 -64 -40 -45 -40 -165
-104 -280 -150 -70 -28 -80 -22 -101 60 -22 81 -44 130 -61 130 -20 0 -67 73
-59 93 4 10 -8 33 -31 62 -36 44 -37 46 -20 65 19 21 15 25 -30 32 -17 3 -131
151 -152 198 -4 8 -20 35 -35 60 -44 69 -71 173 -64 240 5 41 3 60 -9 77 -13
18 -14 30 -4 70 15 64 39 132 60 166 32 54 128 154 164 171 35 17 36 19 20 36
-14 15 -14 21 -3 39 7 12 16 21 20 21 10 0 188 88 278 137 153 84 193 108 198
121 3 9 -73 12 -356 12 -329 0 -360 1 -374 18 -8 9 -34 60 -58 112 -23 52 -55
123 -71 158 -16 34 -29 65 -29 68 0 3 -29 77 -64 163 -125 303 -226 563 -226
579 1 10 7 28 14 42 12 21 12 29 -5 61 -20 40 -41 48 -169 65 -40 5 -82 23
-156 66 -56 32 -108 58 -115 58 -12 0 -123 54 -184 89 -26 15 -30 24 -33 65
-2 27 1 67 7 90 22 92 33 132 43 152 18 38 86 56 128 34 10 -5 79 -22 152 -36
73 -14 155 -30 181 -35 78 -16 81 -12 47 56 -17 33 -41 78 -55 100 -57 93 37
46 141 -71 75 -85 81 -95 93 -174 10 -59 32 -100 54 -100 5 0 66 -27 134 -60
68 -33 126 -60 128 -60 8 0 89 -37 180 -80 44 -22 110 -51 147 -65 37 -14 94
-42 125 -61 56 -34 61 -36 128 -30 39 3 156 8 261 12 l192 7 15 -29 c8 -16 36
-82 61 -147 25 -64 60 -145 76 -178 17 -33 52 -122 77 -197 25 -75 65 -177 88
-227 23 -50 45 -103 49 -118 14 -59 99 -194 159 -254 34 -35 65 -63 68 -63 4
0 5 10 2 21 -5 19 -3 21 20 17 15 -3 35 1 44 8 17 12 16 13 -3 8 -26 -7 -104
31 -104 49 0 7 18 26 41 43 22 16 63 47 91 69 28 22 65 50 83 62 33 22 47 52
75 161 21 83 32 47 34 -115 0 -12 4 -19 8 -17 10 6 9 120 0 226 -4 42 -4 75
-1 72 7 -4 19 33 18 56 -1 8 -4 4 -8 -9 -9 -34 -31 -39 -31 -7 0 14 -3 26 -7
25 -15 -1 -94 -109 -88 -120 4 -5 18 -14 31 -19 13 -5 24 -14 24 -20 0 -15
-37 -12 -54 5 -8 8 -19 15 -23 15 -10 0 -53 -54 -53 -66 0 -12 -114 -114 -128
-114 -7 0 -15 -7 -18 -15 -6 -14 -67 -55 -84 -55 -9 0 -83 131 -94 167 -6 18
-1 26 26 43 18 11 27 20 19 20 -7 0 -32 13 -56 29 l-43 29 14 -35 c9 -19 13
-38 10 -41 -13 -13 -36 24 -47 76 -15 75 -28 109 -54 141 -32 40 -61 180 -39
188 12 4 44 -65 44 -94 0 -15 15 -10 15 5 1 4 4 18 7 32 4 14 12 72 18 130 15
136 44 203 117 270 33 30 53 57 53 70 0 60 79 159 169 213 32 19 68 38 79 41
27 9 32 33 32 151 0 105 -9 132 -53 164 -34 24 -177 212 -206 269 -47 94 -111
385 -111 503 0 45 -2 44 -55 -26 -22 -29 -30 -50 -29 -77 1 -21 -2 -38 -5 -38
-17 0 -67 112 -116 260 -23 69 -64 345 -53 356 3 2 30 -2 60 -10 30 -8 91 -17
136 -21 l81 -6 7 26 c3 14 4 44 0 66 -3 21 -9 56 -12 78 -6 37 -5 39 37 59 24
12 82 30 128 41 46 11 86 23 90 27 3 4 -4 4 -16 1 -13 -3 -23 -1 -23 4 0 5 12
12 27 15 15 4 38 13 52 21 24 13 23 14 -23 7 -60 -8 -68 2 -60 76 9 80 39 127
101 159 22 11 309 53 658 96 116 14 224 27 240 29 17 2 73 9 125 15 123 14
153 18 166 20 6 0 65 -26 131 -59z m2402 -842 c16 -46 5 -46 -18 1 -16 30 -17
39 -7 35 8 -3 19 -19 25 -36z m31 -48 c0 -5 -5 -10 -11 -10 -5 0 -7 5 -4 10 3
6 8 10 11 10 2 0 4 -4 4 -10z m25 -61 c10 -30 0 -33 -13 -4 -6 14 -7 25 -2 25
5 0 12 -9 15 -21z m-1815 -1044 c0 -8 -7 -15 -15 -15 -8 0 -15 7 -15 15 0 8 7
15 15 15 8 0 15 -7 15 -15z m3457 -1888 c21 -34 49 -83 63 -109 14 -27 28 -48
32 -48 5 0 8 -7 8 -15 0 -8 5 -15 10 -15 6 0 9 -3 8 -7 -2 -5 16 -36 40 -70
23 -34 42 -69 42 -77 0 -8 4 -16 8 -18 15 -6 53 -68 55 -88 1 -11 7 -22 14
-24 11 -5 48 -67 53 -91 1 -5 11 -22 22 -37 10 -15 20 -38 20 -50 1 -13 10
-33 21 -45 11 -13 17 -23 13 -23 -4 0 1 -16 13 -35 11 -19 16 -37 11 -40 -5
-3 -21 18 -36 47 -31 62 -74 140 -115 210 -16 27 -29 51 -29 54 0 3 -38 70
-85 149 -47 79 -85 146 -85 149 0 3 -13 27 -28 53 -16 26 -50 83 -75 125 -53
90 -36 95 20 5z m-3420 -369 c-3 -8 -6 -5 -6 6 -1 11 2 17 5 13 3 -3 4 -12 1
-19z m3891 -474 c7 -15 8 -24 2 -24 -6 0 -10 7 -10 15 0 8 -4 15 -9 15 -5 0
-11 7 -14 14 -10 25 19 7 31 -20z m162 -294 c0 -5 -2 -10 -4 -10 -3 0 -8 5
-11 10 -3 6 -1 10 4 10 6 0 11 -4 11 -10z m25 -50 c3 -5 1 -10 -4 -10 -6 0
-11 5 -11 10 0 6 2 10 4 10 3 0 8 -4 11 -10z m-5615 -905 c-7 -8 -18 -15 -24
-15 -6 0 -2 7 8 15 25 19 32 19 16 0z m-59 -35 c-13 -11 -28 -20 -35 -20 -6 0
3 9 19 19 39 25 46 25 16 1z m-2275 -1462 c31 -38 75 -108 66 -108 -4 0 -16
14 -26 32 -11 17 -44 56 -75 85 -49 47 -51 52 -20 34 19 -11 44 -31 55 -43z
m847 -1226 c2 7 8 9 13 5 5 -4 2 -12 -6 -17 -21 -14 -27 -12 -34 6 -5 14 -4
15 8 5 11 -9 15 -9 19 1z m12 -32 c-3 -5 -12 -10 -18 -10 -7 0 -6 4 3 10 19
12 23 12 15 0z m25 -20 c-8 -5 -19 -10 -25 -10 -5 0 -3 5 5 10 8 5 20 10 25
10 6 0 3 -5 -5 -10z"/>
<path d="M4451 8381 c-11 -7 -11 -9 0 -14 8 -3 1 -6 -16 -6 -22 -1 -26 -4 -16
-10 11 -7 9 -10 -10 -14 -13 -3 3 -2 36 1 137 16 213 7 327 -35 260 -97 406
-237 542 -520 64 -133 89 -331 61 -488 -21 -123 -20 -119 -65 -215 -38 -81
-106 -174 -120 -165 -3 2 -15 -10 -25 -26 -11 -16 -23 -29 -27 -29 -13 0 -72
-60 -65 -66 4 -4 -1 -16 -10 -28 -16 -18 -14 -17 15 3 17 12 48 38 68 57 20
19 39 34 41 34 8 0 74 69 98 102 43 60 85 149 107 226 19 64 22 103 23 234 l0
157 40 22 c74 41 125 82 125 101 0 11 7 18 18 18 22 0 52 30 52 51 0 18 24 86
33 95 4 4 7 19 7 33 0 21 -7 13 -35 -38 -19 -35 -41 -71 -50 -81 -8 -9 -15
-20 -15 -24 0 -25 -69 -87 -123 -111 -69 -30 -70 -29 -88 55 -13 61 -83 215
-137 300 -43 69 -214 238 -267 265 -22 11 -54 30 -71 43 -17 12 -41 22 -52 22
-12 0 -22 4 -22 9 0 8 -29 19 -75 27 -11 2 -40 8 -65 13 -56 13 -220 14 -239
2z"/>
<path d="M4695 8290 c22 -10 46 -19 53 -19 7 -1 31 -10 53 -22 23 -11 44 -18
47 -15 8 9 5 10 -85 45 -89 34 -133 41 -68 11z"/>
<path d="M5556 8293 c-6 -14 -5 -15 5 -6 7 7 10 15 7 18 -3 3 -9 -2 -12 -12z"/>
<path d="M5450 8290 c-8 -5 -10 -10 -5 -10 6 0 3 -5 -5 -10 -8 -5 -10 -10 -5
-10 17 0 38 17 34 29 -3 7 -9 7 -19 1z"/>
<path d="M5461 8226 c-9 -11 -9 -16 0 -21 10 -7 28 10 29 28 0 12 -17 8 -29
-7z"/>
<path d="M4867 8211 c3 -11 13 -19 23 -18 21 1 17 12 -10 27 -15 8 -17 6 -13
-9z"/>
<path d="M5548 8211 c-20 -10 -62 -22 -94 -26 -67 -8 -86 -14 -79 -25 6 -10
115 -1 130 10 6 5 29 13 53 19 25 7 42 18 42 26 0 19 -7 18 -52 -4z"/>
<path d="M4890 8175 c0 -4 6 -18 14 -33 20 -39 46 -151 56 -239 16 -148 -37
-314 -141 -440 -53 -65 -164 -155 -234 -190 -98 -50 -244 -71 -349 -52 -97 17
-168 57 -257 144 -26 24 -86 55 -109 55 -16 0 -3 -53 26 -103 13 -23 24 -47
24 -53 0 -28 111 -209 164 -267 86 -96 178 -154 319 -201 60 -20 229 -21 310
-2 76 19 170 64 254 121 80 56 91 66 166 165 103 135 148 256 153 421 8 222
-98 444 -292 609 -72 62 -104 82 -104 65z"/>
<path d="M5427 8093 c-26 -11 -35 -18 -26 -24 7 -4 22 -1 33 7 11 8 30 14 43
14 12 0 25 5 28 10 9 15 -35 11 -78 -7z"/>
<path d="M5571 8070 c-31 -26 -4 -26 29 0 16 13 20 20 10 19 -8 0 -26 -9 -39
-19z"/>
<path d="M5500 8055 c-8 -9 -8 -15 -2 -15 12 0 26 19 19 26 -2 2 -10 -2 -17
-11z"/>
<path d="M5654 8023 c-15 -48 -57 -144 -66 -149 -11 -7 -31 -52 -33 -77 -2
-13 1 -15 11 -6 8 6 12 14 9 18 -4 7 58 100 74 111 10 6 25 120 16 120 -3 0
-8 -8 -11 -17z"/>
<path d="M5568 7983 c-19 -27 -41 -59 -48 -73 -13 -24 -12 -24 21 4 33 28 87
116 71 116 -4 0 -24 -21 -44 -47z"/>
<path d="M5445 7983 l-17 -28 23 22 c12 12 20 25 17 28 -3 3 -13 -7 -23 -22z"/>
<path d="M1445 6750 c-3 -5 -1 -10 4 -10 6 0 11 5 11 10 0 6 -2 10 -4 10 -3 0
-8 -4 -11 -10z"/>
<path d="M1495 6721 l20 -8 -20 -5 c-17 -5 -16 -6 5 -7 14 0 37 -8 50 -18 14
-9 19 -10 13 -3 -7 8 -13 18 -13 22 0 16 36 8 53 -12 18 -21 37 -26 37 -10 0
16 -53 37 -110 43 -31 3 -46 2 -35 -2z"/>
<path d="M4970 6709 c0 -5 5 -7 10 -4 6 3 10 8 10 11 0 2 -4 4 -10 4 -5 0 -10
-5 -10 -11z"/>
<path d="M1447 6689 c4 -13 9 -17 15 -11 11 11 3 32 -12 32 -4 0 -6 -9 -3 -21z"/>
<path d="M1380 6656 c0 -9 6 -13 13 -10 8 3 18 -6 25 -21 8 -17 20 -25 36 -25
23 0 51 -22 41 -32 -3 -3 8 -5 24 -4 16 1 27 4 25 7 -8 14 68 41 95 34 45 -12
178 -7 164 5 -4 4 -26 11 -48 14 -30 5 -36 4 -25 -4 11 -8 4 -10 -30 -4 -25 3
-49 10 -55 14 -5 4 -25 12 -42 18 -31 10 -33 9 -39 -14 -9 -34 -65 -34 -99 0
-31 31 -85 45 -85 22z"/>
<path d="M1686 6545 c42 -21 58 -24 89 -17 21 4 40 13 43 21 3 9 -12 12 -64
11 -38 -1 -80 1 -94 5 -14 3 -2 -5 26 -20z"/>
<path d="M1708 6473 c7 -3 16 -2 19 1 4 3 -2 6 -13 5 -11 0 -14 -3 -6 -6z"/>
<path d="M5709 6343 c-13 -16 -12 -17 4 -4 16 13 21 21 13 21 -2 0 -10 -8 -17
-17z"/>
<path d="M4700 6211 c0 -5 7 -14 15 -21 8 -7 16 -24 16 -39 1 -20 3 -22 6 -5
5 25 -13 74 -27 74 -5 0 -10 -4 -10 -9z"/>
<path d="M4851 6204 c0 -11 3 -14 6 -6 3 7 2 16 -1 19 -3 4 -6 -2 -5 -13z"/>
<path d="M4795 6143 c8 -57 22 -93 34 -93 19 0 23 22 6 39 -14 16 -19 35 -24
89 0 6 -6 12 -12 12 -8 0 -9 -15 -4 -47z"/>
<path d="M4671 6157 c-1 -10 -8 -20 -16 -23 -17 -7 -21 -24 -5 -24 13 0 32 38
26 53 -2 7 -5 4 -5 -6z"/>
<path d="M4938 6157 c-12 -29 -10 -63 3 -50 6 6 9 23 7 39 -2 24 -4 26 -10 11z"/>
<path d="M4553 6149 c-8 -8 -8 -18 -1 -35 16 -34 25 -29 20 11 -5 40 -4 39
-19 24z"/>
<path d="M4435 6110 c22 -25 13 -39 -11 -16 -13 14 -19 14 -31 4 -13 -11 -11
-14 16 -21 21 -5 39 -20 53 -42 11 -19 24 -35 29 -35 17 0 9 50 -11 67 -11 10
-20 25 -20 34 0 9 -7 20 -16 23 -26 10 -28 7 -9 -14z"/>
<path d="M4905 6110 c-3 -5 -1 -10 4 -10 6 0 11 5 11 10 0 6 -2 10 -4 10 -3 0
-8 -4 -11 -10z"/>
<path d="M4495 6100 c-3 -6 1 -7 9 -4 18 7 21 14 7 14 -6 0 -13 -4 -16 -10z"/>
<path d="M4635 6079 c2 -23 13 -34 43 -44 19 -5 22 -3 22 20 0 15 -5 25 -12
23 -7 -1 -22 3 -34 9 -18 10 -20 9 -19 -8z"/>
<path d="M4757 6077 c-3 -8 1 -21 9 -27 15 -13 17 -6 5 24 -6 17 -8 17 -14 3z"/>
<path d="M4222 6045 c0 -16 2 -22 5 -12 2 9 2 23 0 30 -3 6 -5 -1 -5 -18z"/>
<path d="M4536 6034 c-11 -7 -17 -17 -13 -20 3 -4 14 1 23 10 21 22 15 28 -10
10z"/>
<path d="M4976 6023 c4 -10 8 -32 8 -50 2 -42 26 -70 26 -30 0 30 -25 97 -36
97 -3 0 -3 -8 2 -17z"/>
<path d="M4885 6001 c-8 -27 12 -65 47 -86 l31 -18 -7 29 c-4 16 -7 44 -7 62
1 34 -7 40 -27 20 -9 -9 -12 -9 -12 0 0 19 -18 14 -25 -7z"/>
<path d="M4766 5974 c-11 -30 -6 -60 14 -77 31 -26 40 -21 40 24 0 28 -6 46
-17 55 -23 18 -30 17 -37 -2z"/>
<path d="M4684 5964 c3 -9 9 -27 12 -40 5 -21 28 -32 24 -11 -4 27 -24 67 -32
67 -6 0 -7 -7 -4 -16z"/>
<path d="M4614 5943 c4 -16 9 -47 13 -71 7 -51 15 -58 54 -42 27 12 41 40 19
40 -5 0 -10 9 -10 20 0 12 -10 24 -24 29 -13 5 -26 19 -29 30 -8 33 -31 26
-23 -6z"/>
<path d="M4507 5910 c-5 -24 9 -136 19 -148 4 -6 74 60 74 70 0 5 -7 16 -15
24 -8 9 -15 25 -15 38 0 50 -54 64 -63 16z"/>
<path d="M4858 5924 c-10 -9 2 -39 20 -51 16 -9 17 -7 14 23 -4 31 -19 43 -34
28z"/>
<path d="M6093 5888 c-22 -29 -23 -36 -4 -31 12 3 19 13 18 24 -2 22 -2 23
-14 7z"/>
<path d="M4730 5870 c6 -11 18 -20 27 -20 14 0 14 2 -2 20 -10 11 -22 20 -27
20 -5 0 -4 -9 2 -20z"/>
<path d="M4100 5870 c-13 -8 -12 -10 3 -10 9 0 17 5 17 10 0 12 -1 12 -20 0z"/>
<path d="M4817 5873 c-11 -11 -8 -20 8 -20 8 0 15 6 15 14 0 14 -12 17 -23 6z"/>
<path d="M5029 5839 c-8 -15 -14 -18 -22 -10 -16 16 -27 13 -27 -7 0 -9 9 -23
20 -30 11 -7 20 -21 20 -32 0 -11 4 -20 9 -20 5 0 11 -9 14 -20 3 -11 13 -20
22 -20 19 0 13 34 -12 62 -15 17 -14 43 2 81 10 25 -12 22 -26 -4z"/>
<path d="M5505 5840 c-22 -4 -46 -5 -54 -2 -11 4 -12 -1 -7 -24 4 -16 10 -31
12 -34 3 -2 34 -5 70 -6 35 -1 67 -4 71 -8 3 -3 19 -6 35 -6 16 0 39 -5 50
-11 14 -7 23 -8 27 -1 8 14 111 -7 111 -22 0 -7 -5 -17 -12 -24 -7 -7 -9 -12
-5 -12 3 0 15 9 25 20 17 19 22 19 113 5 93 -14 137 -12 141 6 5 31 1 34 -52
35 -30 1 -82 9 -115 17 -33 9 -87 18 -120 22 -33 4 -77 11 -99 16 -21 6 -41 8
-44 5 -3 -3 -10 -1 -17 4 -18 15 -58 19 -73 7 -9 -7 -11 -6 -6 7 3 9 2 15 -2
15 -5 -1 -27 -5 -49 -9z m25 -40 c0 -5 -7 -7 -15 -4 -8 4 -15 8 -15 10 0 2 7
4 15 4 8 0 15 -4 15 -10z"/>
<path d="M4246 5814 c-11 -29 -6 -52 13 -57 17 -4 20 0 19 34 0 40 -20 54 -32
23z"/>
<path d="M4856 5764 c6 -67 25 -104 54 -104 23 0 26 13 6 29 -8 7 -20 35 -27
62 -7 27 -19 55 -26 61 -10 8 -12 -1 -7 -48z"/>
<path d="M4770 5765 c0 -8 -4 -15 -10 -15 -5 0 -10 -7 -10 -15 0 -8 -4 -15 -9
-15 -5 0 -9 -16 -8 -35 2 -40 9 -43 38 -14 14 14 18 26 13 42 -4 12 -7 32 -6
45 1 12 0 22 -3 22 -3 0 -5 -7 -5 -15z"/>
<path d="M6117 5773 c-13 -3 -16 -10 -11 -26 3 -12 7 -23 8 -24 1 -1 17 2 36
6 26 5 36 13 38 29 3 18 -1 22 -25 21 -15 -1 -36 -3 -46 -6z"/>
<path d="M5388 5735 c-3 -4 11 -37 32 -75 68 -123 94 -273 80 -455 -12 -149
-7 -185 26 -185 28 0 31 12 8 31 -14 11 -15 26 -8 99 20 211 -3 373 -73 510
-36 69 -52 88 -65 75z"/>
<path d="M5720 5715 c7 -8 17 -12 22 -9 6 4 5 10 -3 15 -22 14 -33 10 -19 -6z"/>
<path d="M4645 5710 c-3 -5 -1 -10 4 -10 6 0 11 5 11 10 0 6 -2 10 -4 10 -3 0
-8 -4 -11 -10z"/>
<path d="M4580 5666 c0 -7 6 -19 14 -25 11 -9 18 -8 31 5 13 14 14 19 3 25
-20 13 -48 10 -48 -5z"/>
<path d="M4981 5644 c-25 -32 -26 -40 -5 -48 28 -11 31 -7 31 34 0 22 -1 40
-3 40 -1 0 -12 -12 -23 -26z"/>
<path d="M4640 5635 c0 -8 4 -15 10 -15 5 0 7 7 4 15 -4 8 -8 15 -10 15 -2 0
-4 -7 -4 -15z"/>
<path d="M5050 5641 c0 -6 5 -13 11 -17 22 -13 77 -150 87 -214 19 -130 -1
-312 -45 -392 -24 -44 -34 -53 -73 -64 -25 -8 -81 -14 -125 -15 -51 -1 -71 -4
-55 -8 33 -10 111 -5 183 10 67 14 103 48 112 107 4 20 11 48 17 62 6 14 13
86 15 160 6 151 -2 194 -60 312 -21 43 -38 67 -49 67 -10 1 -18 -3 -18 -8z"/>
<path d="M4767 5593 c-44 -24 -47 -27 -32 -42 14 -14 18 -14 42 -1 14 8 31 24
37 35 6 11 16 23 21 27 25 18 -24 5 -68 -19z"/>
<path d="M4700 5515 c7 -8 17 -12 22 -9 6 4 5 10 -3 15 -22 14 -33 10 -19 -6z"/>
<path d="M5170 5023 c0 -21 -3 -49 -7 -62 -4 -17 -3 -22 6 -17 6 4 9 11 6 16
-3 5 -1 11 5 15 13 8 13 72 0 80 -6 4 -10 -9 -10 -32z"/>
<path d="M4050 5026 c0 -2 8 -10 18 -17 15 -13 16 -12 3 4 -13 16 -21 21 -21
13z"/>
<path d="M5690 5000 c-19 -4 -57 -13 -85 -19 -27 -7 -59 -13 -70 -14 -11 -2
-19 -8 -18 -15 2 -6 -4 -9 -11 -6 -8 3 -25 -2 -39 -11 -23 -15 -25 -15 -30 5
-5 20 7 28 16 10 3 -6 4 -5 3 2 -4 19 -33 21 -40 3 -3 -9 -2 -14 2 -11 4 3 7
-8 6 -25 -1 -16 2 -29 7 -29 5 0 9 3 9 8 0 4 19 8 43 8 72 3 102 11 163 44 49
27 100 63 84 59 -3 -1 -21 -5 -40 -9z"/>
<path d="M5386 4947 c3 -8 -3 -20 -12 -28 -16 -12 -17 -12 -11 5 6 16 5 17 -8
6 -11 -9 -15 -9 -15 -1 0 8 -5 7 -15 -3 -8 -8 -15 -21 -15 -28 0 -8 -9 -14
-21 -14 -16 0 -18 2 -7 11 15 11 31 45 21 45 -3 0 -12 -8 -20 -17 -8 -10 -12
-13 -9 -7 3 7 -3 14 -14 17 -11 3 -20 1 -20 -4 0 -5 -7 -9 -16 -9 -8 0 -13 4
-10 9 12 19 -55 -1 -80 -24 -24 -23 -25 -25 -10 -47 9 -12 16 -17 16 -10 0 6
9 12 21 12 11 0 17 -4 14 -10 -3 -6 4 -10 17 -9 13 0 17 3 11 6 -15 6 -18 43
-3 43 5 0 7 -7 4 -15 -4 -8 -2 -15 4 -15 6 0 13 6 15 13 3 7 6 5 6 -5 1 -10 6
-18 12 -18 6 0 8 7 5 16 -5 13 -3 14 6 7 17 -13 80 -6 90 10 5 8 8 8 8 0 0
-13 37 -6 58 10 11 9 11 13 -4 24 -10 7 -13 13 -6 13 6 0 9 7 6 15 -4 8 -10
15 -15 15 -4 0 -6 -6 -3 -13z m-196 -43 c0 -2 -9 -4 -21 -4 -11 0 -18 4 -14
10 5 8 35 3 35 -6z m64 7 c3 -5 -3 -11 -15 -14 -16 -4 -18 -3 -8 9 13 16 16
17 23 5z"/>
<path d="M4360 4909 c-24 -22 -47 -39 -52 -39 -5 0 -8 -16 -6 -37 2 -31 0 -37
-20 -39 -17 -3 -26 4 -38 29 -17 35 -56 59 -89 52 -11 -2 -28 -4 -37 -4 -16
-1 -65 -69 -60 -83 1 -5 -6 -8 -15 -9 -14 0 -13 -3 5 -11 19 -10 27 -7 54 21
25 26 33 29 40 18 5 -10 16 -13 30 -10 13 3 20 2 15 -2 -4 -5 8 -14 28 -20 36
-13 94 -7 132 13 12 7 35 12 51 12 27 0 58 21 48 31 -10 9 151 0 177 -10 37
-14 79 -15 57 -1 -9 6 -10 10 -3 10 6 0 15 -5 18 -10 4 -7 12 -7 25 0 24 13
63 13 55 1 -3 -5 8 -9 25 -9 19 1 30 6 30 15 0 9 -5 11 -12 7 -7 -4 -10 -3 -5
1 11 13 47 16 47 5 0 -6 7 -10 16 -10 9 0 14 7 12 18 -3 12 -13 17 -36 16 -25
-1 -29 2 -21 12 8 10 6 13 -8 13 -175 2 -275 12 -344 34 l-76 24 -43 -38z
m441 -62 c-10 -9 -11 -8 -5 6 3 10 9 15 12 12 3 -3 0 -11 -7 -18z m-301 1 c0
-4 -7 -8 -15 -8 -8 0 -15 4 -15 8 0 5 7 9 15 9 8 0 15 -4 15 -9z m-410 -48 c0
-5 -7 -10 -16 -10 -8 0 -12 5 -9 10 3 6 10 10 16 10 5 0 9 -4 9 -10z"/>
<path d="M4645 4940 c-4 -6 5 -10 20 -10 15 0 24 4 20 10 -3 6 -12 10 -20 10
-8 0 -17 -4 -20 -10z"/>
<path d="M5085 4881 c-3 -5 -2 -12 3 -15 5 -3 9 1 9 9 0 17 -3 19 -12 6z"/>
<path d="M4890 4870 c0 -11 17 -20 44 -24 20 -3 30 -12 14 -14 -7 0 -26 -5
-43 -10 l-30 -10 33 -1 c17 -1 32 4 32 9 0 7 7 7 21 0 19 -10 20 -10 10 9 -14
25 -14 34 -1 26 6 -3 10 1 10 9 0 12 -11 16 -45 16 -25 0 -45 -5 -45 -10z m53
-7 c-7 -2 -19 -2 -25 0 -7 3 -2 5 12 5 14 0 19 -2 13 -5z"/>
<path d="M5003 4873 c-7 -2 -13 -9 -13 -15 0 -7 5 -6 14 1 11 9 13 6 11 -14
-4 -29 1 -31 21 -11 17 18 19 30 2 20 -8 -5 -9 -2 -5 9 6 17 -5 21 -30 10z"/>
<path d="M5061 4844 c0 -11 3 -14 6 -6 3 7 2 16 -1 19 -3 4 -6 -2 -5 -13z"/>
<path d="M5077 4829 c-16 -18 -16 -19 1 -19 28 0 42 13 27 27 -9 8 -16 7 -28
-8z"/>
<path d="M4840 4827 c0 -10 8 -17 18 -17 9 0 13 4 7 8 -5 4 -13 11 -17 16 -5
5 -8 2 -8 -7z"/>
<path d="M5139 4829 c-10 -6 -7 -9 14 -9 29 0 35 5 14 13 -8 3 -20 1 -28 -4z"/>
<path d="M6060 4795 c0 -8 7 -15 16 -15 14 0 14 3 4 15 -7 8 -14 15 -16 15 -2
0 -4 -7 -4 -15z"/>
<path d="M2740 4715 c0 -10 10 -15 34 -15 19 0 64 -9 101 -21 37 -11 69 -18
72 -15 3 3 -3 8 -13 11 -10 4 -27 11 -36 16 -10 5 -32 9 -50 9 -22 0 -29 3
-20 9 10 6 8 10 -10 14 -42 12 -78 8 -78 -8z"/>
<path d="M2960 4655 c0 -3 12 -11 28 -19 15 -8 43 -30 62 -50 19 -19 39 -36
45 -36 20 0 83 -82 120 -155 34 -65 39 -84 39 -147 1 -49 -3 -73 -11 -75 -7
-3 -13 -11 -13 -18 0 -15 51 -107 106 -190 18 -28 53 -98 79 -155 25 -58 54
-114 64 -125 11 -11 28 -38 40 -59 11 -22 26 -43 32 -47 18 -11 4 -24 -53 -54
-29 -15 -60 -34 -68 -42 -8 -8 2 -5 23 7 28 17 41 19 51 11 7 -6 21 -9 29 -5
11 4 23 -6 39 -30 13 -20 28 -37 33 -39 16 -7 61 13 50 21 -16 11 -47 63 -41
69 4 5 -2 15 -31 48 -17 18 -16 22 7 28 13 3 21 -1 25 -14 4 -10 11 -19 16
-19 12 0 0 22 -57 112 -24 37 -50 84 -59 104 -40 97 7 410 65 429 9 3 25 2 35
-1 17 -7 35 10 35 33 0 15 -113 17 -170 3 -19 -4 -65 -11 -102 -14 l-68 -7 0
39 c0 57 -25 131 -62 183 -44 61 -134 149 -153 149 -8 0 -15 5 -15 10 0 6 -5
10 -12 10 -6 0 -19 6 -27 14 -16 13 -81 38 -81 31z"/>
<path d="M4925 4475 c13 -20 31 -57 41 -83 22 -59 32 -72 50 -65 10 4 14 -3
14 -21 0 -24 -2 -25 -20 -16 -14 7 -20 7 -20 0 0 -5 -11 -20 -25 -32 -14 -12
-25 -29 -24 -37 0 -12 3 -10 9 4 6 16 9 17 12 5 3 -8 10 -30 16 -49 6 -19 9
-38 6 -42 -3 -5 4 -9 14 -9 24 0 32 18 32 70 0 21 5 42 10 45 30 19 -27 165
-91 231 -43 44 -55 44 -24 -1z"/>
<path d="M4323 4483 c9 -9 20 -13 24 -9 4 4 1 11 -7 16 -25 16 -35 11 -17 -7z"/>
<path d="M4320 2810 c-9 -6 -10 -10 -3 -10 6 0 15 5 18 10 8 12 4 12 -15 0z"/>
</g>
</svg>
